<?xml version="1.0" encoding="UTF-8" standalone="no"?>
<svg
   class="svg-icon"
   style="overflow:hidden;fill:currentColor"
   viewBox="0 0 858.53101 1021.761"
   version="1.1"
   id="svg6"
   sodipodi:docname="article.svg"
   width="858.53101"
   height="1021.761"
   inkscape:version="1.2 (dc2aedaf03, 2022-05-15)"
   xmlns:inkscape="http://www.inkscape.org/namespaces/inkscape"
   xmlns:sodipodi="http://sodipodi.sourceforge.net/DTD/sodipodi-0.dtd"
   xmlns="http://www.w3.org/2000/svg"
   xmlns:svg="http://www.w3.org/2000/svg">
  <defs
     id="defs10" />
  <sodipodi:namedview
     id="namedview8"
     pagecolor="#ffffff"
     bordercolor="#666666"
     borderopacity="1.0"
     inkscape:showpageshadow="2"
     inkscape:pageopacity="0.0"
     inkscape:pagecheckerboard="0"
     inkscape:deskcolor="#d1d1d1"
     showgrid="false"
     inkscape:zoom="0.23046875"
     inkscape:cx="-724.61017"
     inkscape:cy="514.16949"
     inkscape:window-width="2558"
     inkscape:window-height="1438"
     inkscape:window-x="0"
     inkscape:window-y="0"
     inkscape:window-maximized="1"
     inkscape:current-layer="svg6" />
  <path
     d="m 705.817,291.776 c -74.801,0 -135.633,-60.832 -135.633,-135.605 V 0 H 82.548 C 36.953,0 0,36.982 0,82.549 v 856.719 c 0,45.567 36.955,82.493 82.548,82.493 h 693.46 c 45.571,0 82.523,-36.926 82.523,-82.493 V 291.775 H 705.817 Z M 722.35,837.997 H 136.151 V 782.696 H 722.35 Z m 0,-176.966 H 136.151 V 605.73 H 722.35 Z m 0,-176.966 H 136.151 V 428.764 H 722.35 Z"
     id="path2"
     style="fill:#808080" />
  <path
     d="m 623.268,0 v 156.171 c 0,45.567 36.955,82.493 82.549,82.493 H 858.531 L 623.268,0.002 Z"
     id="path4"
     style="fill:#808080" />
</svg>
