<?xml version="1.0" encoding="UTF-8" standalone="no"?>
<svg
   class="svg-icon"
   style="overflow:hidden;fill:currentColor"
   viewBox="0 0 861.59998 804.52502"
   version="1.1"
   id="svg18"
   sodipodi:docname="home.svg"
   width="861.59998"
   height="804.52502"
   inkscape:version="1.2 (dc2aedaf03, 2022-05-15)"
   xmlns:inkscape="http://www.inkscape.org/namespaces/inkscape"
   xmlns:sodipodi="http://sodipodi.sourceforge.net/DTD/sodipodi-0.dtd"
   xmlns="http://www.w3.org/2000/svg"
   xmlns:svg="http://www.w3.org/2000/svg">
  <defs
     id="defs22" />
  <sodipodi:namedview
     id="namedview20"
     pagecolor="#ffffff"
     bordercolor="#666666"
     borderopacity="1.0"
     inkscape:showpageshadow="2"
     inkscape:pageopacity="0.0"
     inkscape:pagecheckerboard="0"
     inkscape:deskcolor="#d1d1d1"
     showgrid="false"
     inkscape:zoom="0.32593203"
     inkscape:cx="-386.58367"
     inkscape:cy="406.52647"
     inkscape:window-width="2558"
     inkscape:window-height="1438"
     inkscape:window-x="0"
     inkscape:window-y="0"
     inkscape:window-maximized="1"
     inkscape:current-layer="svg18" />
  <path
     d="m 213.1,294.625 185,-185 c 9,-9 20.9,-13.5 32.7,-13.5 11.9,0 23.7,4.5 32.7,13.5 l 185.7,185.7 194.1,194.1 c 1.9,1.9 5.1,1.3 6.2,-1.1 7.9,-17.9 12.1,-37.4 12.1,-57.5 0,-38.1 -14.8,-73.8 -41.7,-100.7 L 531.5,41.625 c -55.6,-55.5 -145.9,-55.5 -201.5,0 l -288.3,288.4 c -26.9,26.9 -41.7,62.6 -41.7,100.7 0,20.1 4.2,39.7 12.1,57.5 1.1,2.4 4.3,3 6.2,1.1 z"
     fill="#2867CE"
     id="path14"
     style="fill:#808080" />
  <path
     d="m 118.4,455.225 c -5.4,5.4 -8.4,12.7 -8.4,20.3 v 230.7 c 0,54.3 44,98.3 98.3,98.3 h 103.3 c 10.4,0 18.9,-8.4 18.9,-18.9 v -255.9 c 0,-11.4 14.1,-16.5 24.2,-16.5 H 507 c 11.6,0 24.2,6.3 24.2,16.5 v 255.9 c 0,10.4 8.4,18.9 18.9,18.9 h 103.3 c 54.3,0 98.3,-44.1 98.3,-98.3 v -230.7 c 0,-7.6 -3,-14.9 -8.4,-20.3 l -300.5,-300.3 c -6.7,-6.7 -17.4,-6.7 -24.1,0 z"
     fill="#BDD2EF"
     id="path16"
     style="fill:#808080" />
</svg>
