<?xml version="1.0" encoding="UTF-8" standalone="no"?>
<svg
   preserveAspectRatio="xMidYMid"
   width="398"
   height="406.12399"
   viewBox="0 0 398 406.12399"
   version="1.1"
   id="svg73"
   sodipodi:docname="r.svg"
   inkscape:version="1.2 (dc2aedaf03, 2022-05-15)"
   xmlns:inkscape="http://www.inkscape.org/namespaces/inkscape"
   xmlns:sodipodi="http://sodipodi.sourceforge.net/DTD/sodipodi-0.dtd"
   xmlns="http://www.w3.org/2000/svg"
   xmlns:svg="http://www.w3.org/2000/svg">
  <sodipodi:namedview
     id="namedview75"
     pagecolor="#ffffff"
     bordercolor="#666666"
     borderopacity="1.0"
     inkscape:showpageshadow="2"
     inkscape:pageopacity="0.0"
     inkscape:pagecheckerboard="0"
     inkscape:deskcolor="#d1d1d1"
     showgrid="false"
     inkscape:zoom="0.42067736"
     inkscape:cx="-952.03602"
     inkscape:cy="131.93009"
     inkscape:window-width="2558"
     inkscape:window-height="1438"
     inkscape:window-x="0"
     inkscape:window-y="0"
     inkscape:window-maximized="1"
     inkscape:current-layer="svg73" />
  <defs
     id="defs67">
    <linearGradient
       id="gradientFill-1"
       x1="0"
       x2="1"
       y1="0"
       y2="1"
       gradientUnits="objectBoundingBox"
       spreadMethod="pad">
      <stop
         offset="0"
         stop-color="rgb(203,206,208)"
         stop-opacity="1"
         id="stop57" />
      <stop
         offset="1"
         stop-color="rgb(132,131,139)"
         stop-opacity="1"
         id="stop59" />
    </linearGradient>
    <linearGradient
       id="gradientFill-2"
       x1="0"
       x2="1"
       y1="0"
       y2="1"
       gradientUnits="objectBoundingBox"
       spreadMethod="pad">
      <stop
         offset="0"
         stop-color="rgb(39,109,195)"
         stop-opacity="1"
         id="stop62" />
      <stop
         offset="1"
         stop-color="rgb(22,92,170)"
         stop-opacity="1"
         id="stop64" />
    </linearGradient>
  </defs>
  <path
     d="m 246.7,221.962 c 0,0 19.6398,5.9265 31.05,11.7 3.9591,2.0034 10.809,6.0012 15.75,11.25 4.8402,5.1408 7.2,10.35 7.2,10.35 l 77.4,130.5 L 253,385.8178 194.5,275.962 c 0,0 -11.979,-20.5821 -19.35,-26.55 -6.1488,-4.9779 -8.7705,-6.75 -14.85,-6.75 -4.2318,0 -29.7234,0 -29.7234,0 L 130.6,385.7386 19.9,385.7854 V 20.306196 h 222.3 c 0,0 101.25,1.8261 101.25,98.155804 0,96.3297 -96.75,103.5 -96.75,103.5 z M 198.55,99.583596 131.5333,99.540396 131.5,161.6854 l 67.05,-0.0216 c 0,0 31.05,-0.0963 31.05,-31.6125 0,-32.149804 -31.05,-30.467704 -31.05,-30.467704 z"
     fill="url(#gradientFill-2)"
     fill-rule="evenodd"
     id="path71"
     style="fill:#808080;stroke-width:0.9" />
</svg>
